<?xml version="1.0" encoding="UTF-8"?>
<svg width="25px" height="23px" viewBox="0 0 25 23" version="1.1" xmlns="http://www.w3.org/2000/svg" xmlns:xlink="http://www.w3.org/1999/xlink">
    <!-- Generator: Sketch 55.2 (78181) - https://sketchapp.com -->
    <title>cart@2x</title>
    <desc>Created with Sketch.</desc>
    <g id="Mockups" stroke="none" stroke-width="1" fill="none" fill-rule="evenodd">
        <g id="Desktop-HD" transform="translate(-1204.000000, -49.000000)" fill="#FFFFFF">
            <g id="cart" transform="translate(1204.000000, 49.000000)">
                <path d="M21,19 L5.06896552,19 C4.82855172,19 4.60406897,18.8794231 4.46937931,18.6784615 C4.33468966,18.4782308 4.30717241,18.2224615 4.39624138,17.9973846 L5.77789655,14.5116154 L4.41724138,1.46153846 L0,1.46153846 L0,0 L5.06896552,0 C5.43972414,0 5.75037931,0.282076923 5.78948276,0.654038462 L7.23775862,14.5393846 C7.25006897,14.6570385 7.23341379,14.7761538 7.18996552,14.8872308 L6.13851724,17.5384615 L21,17.5384615 L21,19" id="Fill-110"></path>
                <path d="M6.87984615,15 L6.58169231,13.6161729 L23.5384615,10.1997173 L23.5384615,4.41351081 L6,4.41351081 L6,3 L24.2692308,3 C24.6726154,3 25,3.31662642 25,3.7067554 L25,10.7743094 C25,11.1093115 24.7573846,11.3976677 24.4183077,11.466223 L6.87984615,15" id="Fill-111"></path>
                <path d="M22,23 C20.3455,23 19,21.6545 19,20 C19,18.3455 20.3455,17 22,17 C23.6545,17 25,18.3455 25,20 C25,21.6545 23.6545,23 22,23 L22,23 Z M22,18.5 C21.17275,18.5 20.5,19.17275 20.5,20 C20.5,20.82725 21.17275,21.5 22,21.5 C22.82725,21.5 23.5,20.82725 23.5,20 C23.5,19.17275 22.82725,18.5 22,18.5 L22,18.5 Z" id="Fill-112"></path>
                <path d="M5,23 C3.3455,23 2,21.6545 2,20 C2,18.3455 3.3455,17 5,17 C6.6545,17 8,18.3455 8,20 C8,21.6545 6.6545,23 5,23 L5,23 Z M5,18.5 C4.17275,18.5 3.5,19.17275 3.5,20 C3.5,20.82725 4.17275,21.5 5,21.5 C5.82725,21.5 6.5,20.82725 6.5,20 C6.5,19.17275 5.82725,18.5 5,18.5 L5,18.5 Z" id="Fill-113"></path>
            </g>
        </g>
    </g>
</svg>