<?xml version="1.0" encoding="UTF-8"?>
<svg width="26px" height="26px" viewBox="0 0 26 26" version="1.1" xmlns="http://www.w3.org/2000/svg" xmlns:xlink="http://www.w3.org/1999/xlink">
    <!-- Generator: Sketch 55.2 (78181) - https://sketchapp.com -->
    <title>user</title>
    <desc>Created with Sketch.</desc>
    <g id="Mockups" stroke="none" stroke-width="1" fill="none" fill-rule="evenodd">
        <g id="Desktop-HD" transform="translate(-1143.000000, -49.000000)" fill="#FFFFFF">
            <g id="user" transform="translate(1143.000000, 49.000000)">
                <path d="M12.9996161,26 C5.83212735,26 0,20.1680449 0,13 C0,5.83195511 5.83212735,0 12.9996161,0 C20.1678726,0 26,5.83195511 26,13 C26,20.1680449 20.1678726,26 12.9996161,26 L12.9996161,26 Z M12.9996161,1.4282339 C6.61921498,1.4282339 1.4275082,6.61901949 1.4275082,13 C1.4275082,19.3809805 6.61921498,24.5717661 12.9996161,24.5717661 C19.380785,24.5717661 24.5724918,19.3809805 24.5724918,13 C24.5724918,6.61901949 19.380785,1.4282339 12.9996161,1.4282339 L12.9996161,1.4282339 Z" id="Fill-57"></path>
                <path d="M5.3074856,23 L4,22.4050361 C4.39692898,21.474859 5.56928983,20.9307332 6.92821497,20.3000238 C8.23877159,19.6915561 9.87024952,18.934546 9.87024952,18.036937 L9.87024952,16.8152355 C9.40575816,16.412503 8.61880998,15.5466677 8.49520154,14.2447375 C8.11900192,13.8777504 7.49481766,13.1294781 7.49481766,12.2032727 C7.49481766,11.640877 7.70978887,11.1873064 7.89865643,10.8989594 C7.78349328,10.2960521 7.56698656,9.03383907 7.56698656,8.10763365 C7.56698656,5.00492493 9.65527831,3 12.8867562,3 C13.8142035,3 14.940499,3.25736754 15.5677543,3.95241878 C17.0326296,4.21931845 18.2072937,6.01374216 18.2072937,8.10763365 C18.2072937,9.45086981 17.9792706,10.5558027 17.8418426,11.1023115 C17.9946257,11.3700056 18.1596929,11.7671777 18.1596929,12.2278974 C18.1596929,13.2692827 17.6514395,13.9428866 17.1769674,14.3027246 C17.0426104,15.5863849 16.3355086,16.4140917 15.9040307,16.8064977 L15.9040307,18.036937 C15.9040307,18.8003019 17.2414587,19.3134482 18.5351248,19.8099134 C20.006142,20.3738978 21.5278311,20.9577409 22,22.2342521 L20.6648752,22.7616967 C20.4253359,22.1103344 19.1570058,21.6241957 18.0383877,21.1952498 C16.3692898,20.554214 14.4767754,19.8281833 14.4767754,18.036937 L14.4767754,16.0399555 L14.8099808,15.8230995 C14.843762,15.8000635 15.771977,15.155056 15.771977,13.8666296 L15.771977,13.3669871 L16.2203455,13.1811105 C16.2955854,13.145365 16.7316699,12.9078561 16.7316699,12.2278974 C16.7316699,12.0197792 16.578119,11.7870363 16.5243762,11.7219001 L16.2641075,11.4057511 L16.3838772,11.0030185 C16.3877159,10.990309 16.7800384,9.74159981 16.7800384,8.10763365 C16.7800384,6.71355946 16.0076775,5.39574231 15.1900192,5.39574231 L14.7800384,5.39574231 L14.5735125,5.02954961 C14.4222649,4.76185559 13.7804223,4.47748034 12.8867562,4.47748034 C10.449904,4.47748034 8.99424184,5.83422035 8.99424184,8.10763365 C8.99424184,9.1815871 9.35815739,10.9108746 9.36199616,10.9283501 L9.44644914,11.3286997 L9.16391555,11.6146636 C9.16391555,11.6146636 8.92207294,11.8791802 8.92207294,12.2032727 C8.92207294,12.61236 9.39654511,13.1215347 9.62610365,13.3042339 L9.90403071,13.5258559 L9.90633397,13.8912543 C9.90633397,15.1081897 10.9213052,15.7945031 10.9650672,15.8230995 L11.293666,16.0407499 L11.2975048,18.036937 C11.2975048,19.8917309 9.28675624,20.8250854 7.51170825,21.6480261 C6.65489443,22.0451982 5.48253359,22.5901184 5.3074856,23" id="Fill-58"></path>
            </g>
        </g>
    </g>
</svg>