<?xml version="1.0" encoding="UTF-8"?>
<svg width="26px" height="23px" viewBox="0 0 26 23" version="1.1" xmlns="http://www.w3.org/2000/svg" xmlns:xlink="http://www.w3.org/1999/xlink">
    <!-- Generator: Sketch 55.2 (78181) - https://sketchapp.com -->
    <title>heart</title>
    <desc>Created with Sketch.</desc>
    <g id="Mockups" stroke="none" stroke-width="1" fill="none" fill-rule="evenodd">
        <g id="Desktop-HD" transform="translate(-1082.000000, -51.000000)" fill="#FFFFFF">
            <g id="heart" transform="translate(1082.000000, 51.000000)">
                <path d="M13,23 L12.5492617,22.6280533 C2.67448317,14.4779078 0,11.6089384 0,6.94871101 C0,3.11719331 3.07607797,0 6.85705848,0 C10.016834,0 11.8028943,1.81849246 13,3.18644699 C14.1971057,1.81849246 15.983166,0 19.1429415,0 C22.923922,0 26,3.11719331 26,6.94871101 C26,11.6089384 23.3255168,14.4779078 13.4507383,22.6280533 L13,23 L13,23 Z M6.85705848,1.44732391 C3.86391022,1.44732391 1.4282339,3.91555586 1.4282339,6.94871101 C1.4282339,10.9413018 3.90767868,13.6102916 13,21.1324853 C22.0923213,13.6102916 24.5717661,10.9413018 24.5717661,6.94871101 C24.5717661,3.91555586 22.1360898,1.44732391 19.1429415,1.44732391 C16.4016539,1.44732391 14.9711164,3.10085256 13.8223863,4.42990053 L13,5.36599229 L12.1776137,4.42990053 C11.0288836,3.10085256 9.59834613,1.44732391 6.85705848,1.44732391 L6.85705848,1.44732391 Z" id="Fill-18"></path>
            </g>
        </g>
    </g>
</svg>